<?xml version="1.0" standalone="no"?>
<svg xmlns:xlink="http://www.w3.org/1999/xlink" id="wave" style="transform:rotate(180deg); transition: 0.3s" viewBox="0 0 1440 310" version="1.1" xmlns="http://www.w3.org/2000/svg"><defs><linearGradient id="sw-gradient-0" x1="0" x2="0" y1="1" y2="0"><stop stop-color="rgba(230, 65, 154, 0.6)" offset="0%"/><stop stop-color="rgba(93, 93, 185, 0.46)" offset="100%"/></linearGradient></defs><path style="transform:translate(0, 0px); opacity:1" fill="url(#sw-gradient-0)" d="M0,155L60,149.8C120,145,240,134,360,124C480,114,600,103,720,103.3C840,103,960,114,1080,139.5C1200,165,1320,207,1440,196.3C1560,186,1680,124,1800,103.3C1920,83,2040,103,2160,113.7C2280,124,2400,124,2520,113.7C2640,103,2760,83,2880,103.3C3000,124,3120,186,3240,206.7C3360,227,3480,207,3600,186C3720,165,3840,145,3960,139.5C4080,134,4200,145,4320,129.2C4440,114,4560,72,4680,67.2C4800,62,4920,93,5040,87.8C5160,83,5280,41,5400,62C5520,83,5640,165,5760,180.8C5880,196,6000,145,6120,144.7C6240,145,6360,196,6480,191.2C6600,186,6720,124,6840,87.8C6960,52,7080,41,7200,77.5C7320,114,7440,196,7560,206.7C7680,217,7800,155,7920,124C8040,93,8160,93,8280,118.8C8400,145,8520,196,8580,222.2L8640,248L8640,310L8580,310C8520,310,8400,310,8280,310C8160,310,8040,310,7920,310C7800,310,7680,310,7560,310C7440,310,7320,310,7200,310C7080,310,6960,310,6840,310C6720,310,6600,310,6480,310C6360,310,6240,310,6120,310C6000,310,5880,310,5760,310C5640,310,5520,310,5400,310C5280,310,5160,310,5040,310C4920,310,4800,310,4680,310C4560,310,4440,310,4320,310C4200,310,4080,310,3960,310C3840,310,3720,310,3600,310C3480,310,3360,310,3240,310C3120,310,3000,310,2880,310C2760,310,2640,310,2520,310C2400,310,2280,310,2160,310C2040,310,1920,310,1800,310C1680,310,1560,310,1440,310C1320,310,1200,310,1080,310C960,310,840,310,720,310C600,310,480,310,360,310C240,310,120,310,60,310L0,310Z"/><defs><linearGradient id="sw-gradient-1" x1="0" x2="0" y1="1" y2="0"><stop stop-color="rgba(93, 93, 185, 0.39)" offset="0%"/><stop stop-color="rgba(0, 212, 255, 0.41)" offset="100%"/></linearGradient></defs><path style="transform:translate(0, 50px); opacity:0.9" fill="url(#sw-gradient-1)" d="M0,279L60,263.5C120,248,240,217,360,170.5C480,124,600,62,720,67.2C840,72,960,145,1080,155C1200,165,1320,114,1440,82.7C1560,52,1680,41,1800,72.3C1920,103,2040,176,2160,217C2280,258,2400,269,2520,253.2C2640,238,2760,196,2880,160.2C3000,124,3120,93,3240,98.2C3360,103,3480,145,3600,149.8C3720,155,3840,124,3960,113.7C4080,103,4200,114,4320,144.7C4440,176,4560,227,4680,248C4800,269,4920,258,5040,217C5160,176,5280,103,5400,62C5520,21,5640,10,5760,31C5880,52,6000,103,6120,139.5C6240,176,6360,196,6480,206.7C6600,217,6720,217,6840,227.3C6960,238,7080,258,7200,258.3C7320,258,7440,238,7560,206.7C7680,176,7800,134,7920,144.7C8040,155,8160,217,8280,206.7C8400,196,8520,114,8580,72.3L8640,31L8640,310L8580,310C8520,310,8400,310,8280,310C8160,310,8040,310,7920,310C7800,310,7680,310,7560,310C7440,310,7320,310,7200,310C7080,310,6960,310,6840,310C6720,310,6600,310,6480,310C6360,310,6240,310,6120,310C6000,310,5880,310,5760,310C5640,310,5520,310,5400,310C5280,310,5160,310,5040,310C4920,310,4800,310,4680,310C4560,310,4440,310,4320,310C4200,310,4080,310,3960,310C3840,310,3720,310,3600,310C3480,310,3360,310,3240,310C3120,310,3000,310,2880,310C2760,310,2640,310,2520,310C2400,310,2280,310,2160,310C2040,310,1920,310,1800,310C1680,310,1560,310,1440,310C1320,310,1200,310,1080,310C960,310,840,310,720,310C600,310,480,310,360,310C240,310,120,310,60,310L0,310Z"/><defs><linearGradient id="sw-gradient-2" x1="0" x2="0" y1="1" y2="0"><stop stop-color="rgba(0, 212, 255, 0.54)" offset="0%"/><stop stop-color="rgba(230, 65, 154, 0.54)" offset="100%"/></linearGradient></defs><path style="transform:translate(0, 100px); opacity:0.8" fill="url(#sw-gradient-2)" d="M0,279L60,268.7C120,258,240,238,360,227.3C480,217,600,217,720,217C840,217,960,217,1080,217C1200,217,1320,217,1440,211.8C1560,207,1680,196,1800,201.5C1920,207,2040,227,2160,227.3C2280,227,2400,207,2520,180.8C2640,155,2760,124,2880,134.3C3000,145,3120,196,3240,217C3360,238,3480,227,3600,186C3720,145,3840,72,3960,36.2C4080,0,4200,0,4320,31C4440,62,4560,124,4680,124C4800,124,4920,62,5040,36.2C5160,10,5280,21,5400,31C5520,41,5640,52,5760,72.3C5880,93,6000,124,6120,144.7C6240,165,6360,176,6480,191.2C6600,207,6720,227,6840,201.5C6960,176,7080,103,7200,103.3C7320,103,7440,176,7560,217C7680,258,7800,269,7920,227.3C8040,186,8160,93,8280,56.8C8400,21,8520,41,8580,51.7L8640,62L8640,310L8580,310C8520,310,8400,310,8280,310C8160,310,8040,310,7920,310C7800,310,7680,310,7560,310C7440,310,7320,310,7200,310C7080,310,6960,310,6840,310C6720,310,6600,310,6480,310C6360,310,6240,310,6120,310C6000,310,5880,310,5760,310C5640,310,5520,310,5400,310C5280,310,5160,310,5040,310C4920,310,4800,310,4680,310C4560,310,4440,310,4320,310C4200,310,4080,310,3960,310C3840,310,3720,310,3600,310C3480,310,3360,310,3240,310C3120,310,3000,310,2880,310C2760,310,2640,310,2520,310C2400,310,2280,310,2160,310C2040,310,1920,310,1800,310C1680,310,1560,310,1440,310C1320,310,1200,310,1080,310C960,310,840,310,720,310C600,310,480,310,360,310C240,310,120,310,60,310L0,310Z"/></svg>